# xmcd
#
# Track frame offsets: 
#        150
#        48110
#        61128
#        72720
#        103293
#        131068
#        151685
#        179693
#        191900
#
# Disc length: 3035 seconds
#
# Revision: 2
# Processed by: cddbd v1.5.2PL0 Copyright (c) Steve Scherf et al.
# Submitted via: ExactAudioCopy v0.99pb3
#
DISCID=850bd909
DTITLE=Barenboim - CSO - LvB - Missa Solemnis op.123 CD1
DYEAR=1994
DGENRE=Chorus
TTITLE0=Kyrie-Assai sostenuto-Andante assai ben marcato- Tempo I
TTITLE1=Gloria-Allegro vivace
TTITLE2=Gloria-Meno allegro-Tempo I
TTITLE3=Gloria-Larghetto
TTITLE4=Gloria-Allegro maestoso- Allegro ma non troppo e ben marcato
TTITLE5=Credo- Allegro ma non troppo
TTITLE6=Credo- Adagio
TTITLE7=Credo-Allegro-Allegro molto-Allegro ma non troppo
TTITLE8=Credo- Allegro ma non troppo-Allegro con moto-Grave
EXTD=
EXTT0=
EXTT1=
EXTT2=
EXTT3=
EXTT4=
EXTT5=
EXTT6=
EXTT7=
EXTT8=
PLAYORDER=
